<?xml version="1.0" encoding="UTF-8"?>
<svg version="1.1" xmlns="http://www.w3.org/2000/svg" width="48" height="48">
<path d="M0 0 C1.67542976 0.28604898 3.34385343 0.61781233 5 1 C5 2.65 5 4.3 5 6 C5.9075 5.95875 6.815 5.9175 7.75 5.875 C10.9953755 5.99982213 12.24196584 6.48752965 15 8 C16.65740715 8.37668344 18.32345271 8.72057545 20 9 C21 12 21 12 21.4375 15 C21.82856035 18.16735776 21.82856035 18.16735776 24 21 C23.45945946 25.54054054 23.45945946 25.54054054 22 27 C20.52351124 27.09823996 19.04224583 27.12973519 17.5625 27.125 C16.75941406 27.12757812 15.95632812 27.13015625 15.12890625 27.1328125 C13 27 13 27 11 26 C10.67386382 21.32538149 11.29417212 18.83325617 14 15 C9.73422431 12.0459281 9.73422431 12.0459281 5 10 C5 17.26 5 24.52 5 32 C6.65 32 8.3 32 10 32 C11.0625 33.75 11.0625 33.75 12 36 C11.67 37.32 11.34 38.64 11 40 C5.06 40 -0.88 40 -7 40 C-8 36 -8 36 -7.0625 33.75 C-6.711875 33.1725 -6.36125 32.595 -6 32 C-4.35 32 -2.7 32 -1 32 C-1 24.74 -1 17.48 -1 10 C-4.96 11.98 -4.96 11.98 -9 14 C-9.2773501 17.18490007 -9.2773501 17.18490007 -7 20 C-6.875 23.1875 -6.875 23.1875 -7 26 C-9.35346396 27.17673198 -10.8806033 27.16623866 -13.5 27.1875 C-14.2940625 27.20167969 -15.088125 27.21585938 -15.90625 27.23046875 C-18 27 -18 27 -20 25 C-19.67582137 21.19090105 -19.14418558 19.21627837 -17 16 C-17 14.989375 -17 13.97875 -17 12.9375 C-17 10 -17 10 -15 8 C-13.33333333 8 -11.66666667 8 -10 8 C-9.01 7.34 -8.02 6.68 -7 6 C-3.8125 5.875 -3.8125 5.875 -1 6 C-1.020625 5.195625 -1.04125 4.39125 -1.0625 3.5625 C-1 1 -1 1 0 0 Z M-14 10 C-13 12 -13 12 -13 12 Z M17 10 C18 12 18 12 18 12 Z M-12 18 C-12 18.99 -12 19.98 -12 21 C-11.34 20.67 -10.68 20.34 -10 20 C-10.66 19.34 -11.32 18.68 -12 18 Z M15 18 C14.67 18.99 14.34 19.98 14 21 C14.66 21 15.32 21 16 21 C15.67 20.01 15.34 19.02 15 18 Z M-16 19 C-15 21 -15 21 -15 21 Z M19 19 C20 21 20 21 20 21 Z M-4 34 C-4 34.33 -4 34.66 -4 35 C-0.04 35 3.92 35 8 35 C8 34.67 8 34.34 8 34 C4.04 34 0.08 34 -4 34 Z M-5 37 C-5 37.33 -5 37.66 -5 38 C-0.38 38 4.24 38 9 38 C9 37.67 9 37.34 9 37 C4.38 37 -0.24 37 -5 37 Z " fill="#BB37F5" transform="translate(22,4)"/>
<path d="M0 0 C1.67542976 0.28604898 3.34385343 0.61781233 5 1 C5 2.65 5 4.3 5 6 C5.9075 5.95875 6.815 5.9175 7.75 5.875 C10.9953755 5.99982213 12.24196584 6.48752965 15 8 C16.65740715 8.37668344 18.32345271 8.72057545 20 9 C21 12 21 12 21.4375 15 C21.82856035 18.16735776 21.82856035 18.16735776 24 21 C23.45945946 25.54054054 23.45945946 25.54054054 22 27 C20.52351124 27.09823996 19.04224583 27.12973519 17.5625 27.125 C16.75941406 27.12757812 15.95632812 27.13015625 15.12890625 27.1328125 C13 27 13 27 11 26 C10.67386382 21.32538149 11.29417212 18.83325617 14 15 C9.73422431 12.0459281 9.73422431 12.0459281 5 10 C4.67 10.66 4.34 11.32 4 12 C3.443125 11.505 2.88625 11.01 2.3125 10.5 C-0.45195204 8.70684192 -1.76213943 8.59526743 -5 9 C-5.928125 9.495 -5.928125 9.495 -6.875 10 C-9.92273759 11.43422946 -12.68189065 11.12761959 -16 11 C-15.67 10.01 -15.34 9.02 -15 8 C-13.8553125 8.061875 -13.8553125 8.061875 -12.6875 8.125 C-9.77281584 8.22080824 -9.77281584 8.22080824 -7 6 C-3.8125 5.875 -3.8125 5.875 -1 6 C-1.020625 5.195625 -1.04125 4.39125 -1.0625 3.5625 C-1 1 -1 1 0 0 Z M17 10 C18 12 18 12 18 12 Z M15 18 C14.67 18.99 14.34 19.98 14 21 C14.66 21 15.32 21 16 21 C15.67 20.01 15.34 19.02 15 18 Z M19 19 C20 21 20 21 20 21 Z " fill="#CA2AF7" transform="translate(22,4)"/>
<path d="M0 0 C1.98 0 3.96 0 6 0 C6 2.31 6 4.62 6 7 C7.65 7 9.3 7 11 7 C12.0625 8.75 12.0625 8.75 13 11 C12.67 12.32 12.34 13.64 12 15 C6.06 15 0.12 15 -6 15 C-7 11 -7 11 -6.0625 8.75 C-5.711875 8.1725 -5.36125 7.595 -5 7 C-3.35 7 -1.7 7 0 7 C0 4.69 0 2.38 0 0 Z M-3 9 C-3 9.33 -3 9.66 -3 10 C0.96 10 4.92 10 9 10 C9 9.67 9 9.34 9 9 C5.04 9 1.08 9 -3 9 Z M-4 12 C-4 12.33 -4 12.66 -4 13 C0.62 13 5.24 13 10 13 C10 12.67 10 12.34 10 12 C5.38 12 0.76 12 -4 12 Z " fill="#27B7E2" transform="translate(21,29)"/>
<path d="M0 0 C1.11375 0.185625 1.11375 0.185625 2.25 0.375 C6.29847397 6.6317325 6.29847397 6.6317325 6.0625 10.25 C5.25 12.375 5.25 12.375 4.25 13.375 C2.77351124 13.47323996 1.29224583 13.50473519 -0.1875 13.5 C-0.99058594 13.50257812 -1.79367188 13.50515625 -2.62109375 13.5078125 C-4.75 13.375 -4.75 13.375 -6.75 12.375 C-7.11875341 8.50308922 -6.82486527 6.52473053 -5.0625 3 C-2.75 0.375 -2.75 0.375 0 0 Z M-2.75 4.375 C-3.08 5.365 -3.41 6.355 -3.75 7.375 C-3.09 7.375 -2.43 7.375 -1.75 7.375 C-2.08 6.385 -2.41 5.395 -2.75 4.375 Z M1.25 5.375 C2.25 7.375 2.25 7.375 2.25 7.375 Z " fill="#8268EE" transform="translate(39.75,17.625)"/>
<path d="M0 0 C0.78375 0.04125 1.5675 0.0825 2.375 0.125 C2.375 1.445 2.375 2.765 2.375 4.125 C2.705 2.805 3.035 1.485 3.375 0.125 C4.035 0.125 4.695 0.125 5.375 0.125 C7.66513653 3.5602048 7.55342973 5.110331 7.375 9.125 C5.02153604 10.30173198 3.4943967 10.29123866 0.875 10.3125 C0.0809375 10.32667969 -0.713125 10.34085938 -1.53125 10.35546875 C-3.625 10.125 -3.625 10.125 -5.625 8.125 C-4.96762948 0.23655378 -4.96762948 0.23655378 0 0 Z M-1.625 2.125 C-0.625 4.125 -0.625 4.125 -0.625 4.125 Z " fill="#8466EF" transform="translate(7.625,20.875)"/>
<path d="M0 0 C1.67542976 0.28604898 3.34385343 0.61781233 5 1 C5 2.65 5 4.3 5 6 C-1.33210267 9.5459775 -8.77645575 11 -16 11 C-15.67 10.01 -15.34 9.02 -15 8 C-13.8553125 8.061875 -13.8553125 8.061875 -12.6875 8.125 C-9.77281584 8.22080824 -9.77281584 8.22080824 -7 6 C-3.8125 5.875 -3.8125 5.875 -1 6 C-1.020625 5.195625 -1.04125 4.39125 -1.0625 3.5625 C-1 1 -1 1 0 0 Z " fill="#CB28F8" transform="translate(22,4)"/>
<path d="M0 0 C1.98 0 3.96 0 6 0 C6 2.31 6 4.62 6 7 C7.65 7 9.3 7 11 7 C10.67 7.99 10.34 8.98 10 10 C5.05 9.67 0.1 9.34 -5 9 C-5 8.34 -5 7.68 -5 7 C-3.35 7 -1.7 7 0 7 C0 4.69 0 2.38 0 0 Z " fill="#479CE7" transform="translate(21,29)"/>
<path d="M0 0 C1.98 0 3.96 0 6 0 C6 3.63 6 7.26 6 11 C4.02 11 2.04 11 0 11 C0 7.37 0 3.74 0 0 Z " fill="#9558F1" transform="translate(21,18)"/>
<path d="M0 0 C1.65 0 3.3 0 5 0 C5.66 1.65 6.32 3.3 7 5 C6.01 5 5.02 5 4 5 C3.67 5.66 3.34 6.32 3 7 C0.03 6.505 0.03 6.505 -3 6 C-2.01 4.02 -1.02 2.04 0 0 Z " fill="#9B52F1" transform="translate(37,18)"/>
<path d="M0 0 C5.61 0 11.22 0 17 0 C16.67 0.99 16.34 1.98 16 3 C10.72 3 5.44 3 0 3 C0 2.01 0 1.02 0 0 Z " fill="#36AAE5" transform="translate(16,38)"/>
<path d="M0 0 C4.29 0 8.58 0 13 0 C12.34 1.32 11.68 2.64 11 4 C9.54176788 4.0270043 8.08339325 4.04639787 6.625 4.0625 C5.81289063 4.07410156 5.00078125 4.08570313 4.1640625 4.09765625 C2 4 2 4 0 3 C0 2.01 0 1.02 0 0 Z " fill="#7078EC" transform="translate(33,27)"/>
<path d="M0 0 C4.29 0 8.58 0 13 0 C13 0.99 13 1.98 13 3 C10.59454362 4.20272819 9.05003047 4.10071472 6.375 4.0625 C5.14910156 4.04896484 5.14910156 4.04896484 3.8984375 4.03515625 C2.95871094 4.01775391 2.95871094 4.01775391 2 4 C1.34 2.68 0.68 1.36 0 0 Z " fill="#7078EC" transform="translate(2,27)"/>
<path d="M0 0 C1.67542976 0.28604898 3.34385343 0.61781233 5 1 C5 2.65 5 4.3 5 6 C1.25 7.125 1.25 7.125 -1 6 C-1.042721 4.33388095 -1.04063832 2.66617115 -1 1 C-0.67 0.67 -0.34 0.34 0 0 Z " fill="#E710FB" transform="translate(22,4)"/>
<path d="M0 0 C1.98 0 3.96 0 6 0 C6.042721 1.66611905 6.04063832 3.33382885 6 5 C5 6 5 6 2.4375 6.0625 C1.2309375 6.0315625 1.2309375 6.0315625 0 6 C0 4.02 0 2.04 0 0 Z " fill="#697EEB" transform="translate(21,29)"/>
<path d="M0 0 C1.98 0 3.96 0 6 0 C6 1.65 6 3.3 6 5 C4.02 5 2.04 5 0 5 C0 3.35 0 1.7 0 0 Z " fill="#7F6BEE" transform="translate(21,24)"/>
<path d="M0 0 C1.670625 0.2475 1.670625 0.2475 3.375 0.5 C6.94351384 1.26487734 6.94351384 1.26487734 10 0 C9.67 1.32 9.34 2.64 9 4 C2.47692308 4.36923077 2.47692308 4.36923077 0.0625 2.5 C-0.4634375 1.7575 -0.4634375 1.7575 -1 1 C-0.67 0.67 -0.34 0.34 0 0 Z " fill="#B839F5" transform="translate(33,14)"/>
<path d="M0 0 C1.65 0 3.3 0 5 0 C5 1.32 5 2.64 5 4 C2.03 3.505 2.03 3.505 -1 3 C-0.67 2.01 -0.34 1.02 0 0 Z " fill="#A34BF2" transform="translate(6,18)"/>
<path d="M0 0 C1.98 0 3.96 0 6 0 C6 0.99 6 1.98 6 3 C4.02 3 2.04 3 0 3 C0 2.01 0 1.02 0 0 Z " fill="#A54AF3" transform="translate(21,18)"/>
<path d="M0 0 C1.98 0 3.96 0 6 0 C5.67 0.99 5.34 1.98 5 3 C3.35 3 1.7 3 0 3 C0 2.01 0 1.02 0 0 Z " fill="#598CE9" transform="translate(21,32)"/>
<path d="M0 0 C1.2065625 0.0309375 1.2065625 0.0309375 2.4375 0.0625 C2.1075 1.3825 1.7775 2.7025 1.4375 4.0625 C0.1175 4.0625 -1.2025 4.0625 -2.5625 4.0625 C-2.8925 3.0725 -3.2225 2.0825 -3.5625 1.0625 C-2.5625 0.0625 -2.5625 0.0625 0 0 Z " fill="#9359F0" transform="translate(7.5625,20.9375)"/>
</svg>
